<?xml version="1.0" encoding="utf-8"?>
<!DOCTYPE svg PUBLIC "-//W3C//DTD SVG 1.0//EN" "http://www.w3.org/TR/2001/REC-SVG-20010904/DTD/svg10.dtd">
<svg version="1.0" xmlns="http://www.w3.org/2000/svg" width="667px" height="392px" viewBox="0 0 667 392" preserveAspectRatio="xMidYMid meet">
 <g fill="#c00c26">
  <path d="M128.4 388.3 c0.3 -1.6 1.3 -10.3 2.2 -19.5 l1.7 -16.8 261.3 0 261.3 0 -0.5 3.3 c-0.6 4.3 -3.4 32.6 -3.4 34.3 0 1.2 -40.7 1.4 -261.6 1.4 l-261.6 0 0.6 -2.7z"/>
  <path d="M123 223.8 c0 -1.8 0.9 -13.9 2 -26.8 1.1 -12.9 2 -23.8 2 -24.2 0 -0.5 61.7 -0.8 137 -0.8 l137 0 0 3.8 c0 2 -0.9 13.8 -2 26.2 -1.1 12.4 -2 23.1 -2 23.8 0 0.9 -28.1 1.2 -137 1.2 l-137 0 0 -3.2z m84.7 -28.5 c-0.2 -3.2 -0.3 -0.6 -0.3 5.7 0 6.3 0.1 8.9 0.3 5.8 0.2 -3.2 0.2 -8.4 0 -11.5z m41 0 c-0.2 -3.2 -0.3 -0.6 -0.3 5.7 0 6.3 0.1 8.9 0.3 5.8 0.2 -3.2 0.2 -8.4 0 -11.5z"/>
  <path d="M659.5 212.3 c-2.7 -2.1 -8.1 -5.9 -11.9 -8.5 -6.4 -4.4 -7 -4.6 -9.5 -3.4 -2.2 1.2 -2.8 1.2 -3.8 0 -0.7 -0.7 -1.3 -1.7 -1.3 -2.3 0 -0.5 -1.3 -1.2 -3 -1.6 -1.6 -0.4 -3 -1.1 -3 -1.6 0 -0.5 -0.7 -0.9 -1.5 -0.9 -0.9 0 -1.8 -0.6 -2.1 -1.4 -0.3 -0.8 -1.4 -1.6 -2.4 -1.9 -1.3 -0.3 -1.6 -1.1 -1.3 -2.8 0.5 -2.9 -0.3 -3.7 -15 -14.8 -10.4 -7.7 -12.7 -8.8 -12.7 -5.5 0 2.5 -2.7 1.5 -5.9 -2.1 -1.7 -1.9 -3.7 -3.5 -4.6 -3.5 -0.8 0 -1.5 -0.4 -1.5 -1 0 -0.5 -0.7 -1 -1.5 -1 -0.8 0 -1.5 -0.4 -1.5 -1 0 -0.5 -0.6 -1 -1.2 -1 -0.7 0 -2.4 -0.9 -3.8 -2 -2.1 -1.6 -2.3 -2.2 -1.3 -3.9 1.1 -1.7 0.5 -2.5 -6.2 -7.8 l-7.5 -5.8 0 -16.2 0 -16.3 19.5 -13 19.5 -13 20.2 0 c19.2 0 20.4 0.1 21.6 2 0.9 1.5 2.3 2 5.5 2 4.6 0 6.7 1.3 6.7 4.1 0 1 0.6 1.9 1.2 2.1 1 0.4 1.4 5.5 1.7 19.6 l0.3 19.2 -5 0 c-2.8 0 -5.7 -0.6 -6.4 -1.3 -0.7 -0.7 -3.7 -2.3 -6.7 -3.6 -2.9 -1.2 -7.5 -3.6 -10.1 -5.2 -4 -2.4 -4.9 -3.6 -5.2 -6.2 l-0.3 -3.2 -12.7 -0.3 -12.8 -0.3 0 11.5 0 11.6 7.8 5.7 c4.2 3.1 9.7 7.2 12.1 9 4.9 3.7 6.1 4 6.1 1.8 0 -3.1 4 -1.3 14.2 6.3 5.7 4.2 12.1 8.8 14.1 10.2 2.3 1.6 3.7 3.3 3.7 4.7 0 3.8 1.1 5.2 7.6 9.8 l6.4 4.6 0 16 c0 8.7 -0.3 15.9 -0.7 15.9 -0.5 0 -3 -1.7 -5.8 -3.7z"/>
 </g>
 <g fill="#c62e44">
  <path d="M634 200 c0 -0.5 -0.7 -1 -1.5 -1 -0.8 0 -2 -0.9 -2.7 -2 -0.7 -1.1 -1.9 -2 -2.6 -2 -0.7 0 -1.5 -0.6 -1.8 -1.4 -0.3 -0.8 -1.4 -1.6 -2.5 -1.9 -1.2 -0.3 -2.2 -1.7 -2.5 -3.6 -0.4 -1.7 -1.3 -3.6 -2 -4.2 -0.8 -0.6 -1.4 -1.7 -1.4 -2.3 0 -0.6 1.6 0.7 3.5 2.9 2 2.3 3.5 3.4 3.5 2.5 0.1 -0.8 0.8 -0.2 1.6 1.4 1.2 2 1.8 2.5 2.4 1.6 0.6 -0.9 1 -0.7 1.5 0.9 0.6 1.8 2.2 2.6 4.8 2.2 0.4 -0.1 1.1 0.7 1.4 1.6 1 2.6 3.3 4.8 3.3 3.2 0 -0.7 0.3 -0.9 0.6 -0.6 0.4 0.4 0.1 1.3 -0.6 2.2 -1.4 1.7 -5 2.1 -5 0.5z"/>
  <path d="M582.8 163 c-0.7 -1.1 -1.8 -2 -2.5 -2 -0.7 0 -1.3 -0.4 -1.3 -1 0 -0.5 -0.7 -1 -1.5 -1 -0.9 0 -1.8 -0.7 -2.1 -1.5 -0.4 -0.8 -1.2 -1.5 -2 -1.5 -0.8 0 -1.4 -0.4 -1.4 -1 0 -0.5 -0.7 -1 -1.7 -1 -1.4 0 -1.5 -0.2 -0.1 -1.7 0.9 -1 1.4 -2.5 1.1 -3.3 -0.2 -0.8 0.3 -0.2 1.3 1.4 1.1 2 1.8 2.5 2.4 1.7 0.5 -0.9 0.9 -0.5 1.4 1.1 0.5 1.8 0.8 2 1.5 0.9 0.7 -1.1 1 -0.9 1.6 0.8 0.4 1.4 1.2 2 2.1 1.7 0.8 -0.3 1.4 0.1 1.4 0.9 0 0.8 0.8 1.5 1.8 1.6 0.9 0 2.7 1.3 4 3 l2.4 2.9 -3.6 0 c-2.5 0 -4 -0.6 -4.8 -2z"/>
  <path d="M638.5 163 c-0.3 -0.5 -1.2 -0.7 -2.1 -0.3 -0.8 0.3 -1.4 0.1 -1.2 -0.4 0.2 -0.5 -1 -2.1 -2.7 -3.6 l-3 -2.6 3.8 -0.1 c2.6 0 3.7 0.4 3.7 1.5 0 0.8 0.7 1.5 1.5 1.5 0.9 0 1.5 0.9 1.5 2.5 0 2.6 -0.5 3.1 -1.5 1.5z"/>
  <path d="M641 128.3 c-1.8 -0.7 -10.3 -6.4 -11 -7.3 -0.3 -0.4 -1.5 -1 -2.7 -1.4 -1.3 -0.4 -2.3 -1.2 -2.3 -1.7 0 -0.5 -0.5 -0.9 -1.1 -0.9 -2 0 -3.9 -2.9 -3.8 -5.7 0.1 -1.5 0.3 -2.1 0.5 -1.3 0.6 2.2 4.4 4.5 4.5 2.8 0 -0.7 0.5 -0.2 1 1.2 0.8 2 1.2 2.2 1.9 1 0.8 -1.2 1 -1.1 1 0.5 0 1.5 0.3 1.7 0.9 0.7 0.6 -1 1 -0.8 1.5 1 0.5 1.9 0.8 2 1.6 0.8 0.8 -1.3 1 -1.2 1.1 0.5 0 1.1 0.3 1.5 0.5 0.8 0.4 -0.8 1.2 -0.5 2.5 0.8 1.1 1.1 2.4 1.7 2.9 1.4 0.6 -0.4 1 -0.1 1 0.5 0 0.6 0.5 0.8 1 0.5 0.6 -0.3 1.3 0.1 1.6 0.9 0.3 0.9 1 1.3 1.5 1 0.5 -0.3 0.9 0 0.9 0.6 0 0.6 0.4 0.9 0.9 0.6 0.5 -0.3 1.1 0.3 1.4 1.4 0.4 1.7 0 2 -2.6 1.9 -1.8 0 -3.9 -0.3 -4.7 -0.6z"/>
  <path d="M650 112.5 c0 -14 0.2 -16.5 1.5 -16.5 1.3 0 1.5 2.5 1.5 16.5 0 14 -0.2 16.5 -1.5 16.5 -1.3 0 -1.5 -2.5 -1.5 -16.5z"/>
  <path d="M595 108 c0 -0.5 0.7 -1 1.5 -1 0.8 0 1.5 0.5 1.5 1 0 0.6 -0.7 1 -1.5 1 -0.8 0 -1.5 -0.4 -1.5 -1z"/>
  <path d="M613 108 c0 -0.5 0.7 -1 1.5 -1 0.8 0 1.5 0.5 1.5 1 0 0.6 -0.7 1 -1.5 1 -0.8 0 -1.5 -0.4 -1.5 -1z"/>
  <path d="M647.6 92.5 c-1.7 -1.4 -2.3 -2.5 -1.5 -2.5 0.8 0 0.3 -1 -1.4 -2.5 -3.3 -3.2 -3.4 -3.5 -0.2 -3.5 1.5 0 2.5 0.6 2.5 1.4 0 0.8 1 1.6 2.3 1.8 1.8 0.2 2.3 1 2.5 4.1 0.4 4.4 -0.3 4.6 -4.2 1.2z"/>
 </g>
 <g fill="#e6e6e6">
  <path d="M587.8 385.4 c-0.4 -0.5 -1.4 -3.8 -2.3 -7.4 -2.6 -10.2 -3.1 -10.3 -5.1 -1.2 -1.4 6.1 -2.3 8.2 -3.5 8.2 -1.3 0 -1.2 -1.3 1.1 -10.2 1.5 -5.7 3 -11.5 3.4 -13 0.4 -1.8 1.3 -2.8 2.4 -2.8 1.4 0 2.4 2 4.6 9.1 l2.7 9 6 -7.8 c3.4 -4.3 6.3 -8.4 6.6 -9 0.3 -0.7 1.5 -1.3 2.7 -1.3 l2.3 0 -2.6 13 c-2.5 12.9 -2.5 13 -5.3 13 -1.5 0 -2.8 -0.2 -2.8 -0.4 0 -0.3 0.7 -3.7 1.5 -7.7 0.9 -4 1.4 -7.3 1.3 -7.5 -0.3 -0.3 -9.5 12 -11.4 15.1 -0.6 1.1 -1.3 1.5 -1.6 0.9z"/>
  <path d="M612.2 384.9 c-2.8 -0.8 -3.2 -1.3 -2.6 -3.2 1 -3.2 1.3 -3.3 3 -0.8 1.9 2.6 6.1 2.6 7.8 -0.1 0.8 -1.3 0.1 -2.6 -3.8 -6.8 -4.2 -4.5 -4.7 -5.5 -4.2 -8.3 1.1 -5.6 6.3 -8 13.4 -6.1 1.8 0.5 2.1 1.1 1.6 2.8 -0.9 3.1 -1.2 3.1 -3.2 0.6 -1.3 -1.6 -2.4 -2.1 -3.9 -1.6 -3.9 1.2 -3.6 3.6 1.2 8.7 5.1 5.5 5.7 8.5 2.3 12.3 -2.7 2.9 -7 3.8 -11.6 2.5z"/>
  <path d="M526.7 382.3 c0.3 -1.6 1.6 -7.3 2.8 -12.8 l2.1 -10 7.2 -0.3 c6 -0.2 7.2 0 7.2 1.3 0 1.1 -1.1 1.5 -4.4 1.5 -3.4 0 -4.6 0.4 -5 1.8 -0.2 0.9 -0.7 2.7 -1.1 4 -0.6 2 -0.3 2.2 3.4 2.2 3 0 4.1 0.4 4.1 1.5 0 1.1 -1.2 1.5 -4.4 1.5 l-4.4 0 -0.7 4.6 c-1 6.7 -1.4 7.4 -4.6 7.4 -2.7 0 -2.9 -0.2 -2.2 -2.7z"/>
  <path d="M544.9 382.8 c0.5 -1.3 1.9 -7.1 3.1 -13 2.3 -10.8 2.3 -10.8 5.3 -10.8 2.5 0 2.9 0.3 2.4 2.3 -0.3 1.2 -1.6 7 -2.8 13 l-2.4 10.7 -3.2 0 c-3 0 -3.2 -0.2 -2.4 -2.2z"/>
  <path d="M558 384.1 c0 -0.5 0.9 -4.7 1.9 -9.3 1.1 -4.6 2.2 -10 2.6 -12 0.5 -3.4 0.9 -3.8 3.5 -3.8 1.7 0 3 0.3 3 0.8 -0.1 0.4 -1.1 5.5 -2.4 11.5 l-2.4 10.7 4.4 0 c3.2 0 4.4 0.4 4.4 1.5 0 1.2 -1.5 1.5 -7.5 1.5 -4.1 0 -7.5 -0.4 -7.5 -0.9z"/>
  <path d="M204.2 200.8 l0.3 -14.3 7.8 -0.3 c7.2 -0.3 7.7 -0.1 7.7 1.8 0 1.7 -0.6 2 -4.5 2 l-4.5 0 0 4.5 c0 4.3 0.1 4.5 3 4.5 2.3 0 3 0.4 3 2 0 1.6 -0.7 2 -3 2 l-3 0 0 6 0 6 -3.5 0 -3.6 0 0.3 -14.2z"/>
  <path d="M230 200.5 l0 -14.5 3 0 3 0 0 14.5 0 14.5 -3 0 -3 0 0 -14.5z"/>
  <path d="M245.2 200.8 l0.3 -14.3 3 0 3 0 0.3 12.8 0.3 12.7 4.4 0 c3.3 0 4.5 0.4 4.5 1.5 0 1.2 -1.6 1.5 -8 1.5 l-8.1 0 0.3 -14.2z"/>
  <path d="M267 201.2 c0 -7.6 0.3 -14.2 0.7 -14.6 0.4 -0.3 3.9 2.5 7.8 6.4 l7.1 7 6.9 -7 c3.8 -3.8 7.5 -7 8.2 -7 1 0 1.3 3.4 1.3 14.5 l0 14.5 -3 0 -3 0 0 -8.7 0 -8.7 -5.5 5.4 -5.5 5.4 -5.5 -5.4 -5.5 -5.4 0 8.7 c0 8 -0.2 8.7 -2 8.7 -1.9 0 -2 -0.7 -2 -13.8z"/>
  <path d="M307.8 213.9 c-1.9 -1.1 -2.5 -4.9 -0.7 -4.9 0.6 0 1.7 0.7 2.6 1.5 1.8 1.8 3.2 1.6 4.7 -0.7 0.7 -1.2 -0.1 -2.8 -3.9 -7.3 -3.8 -4.4 -4.9 -6.5 -4.9 -9.1 0 -4.8 2.5 -6.9 8 -6.9 4.6 0 7.4 2 7.4 5.2 0 1.8 -2.7 1.6 -3.4 -0.3 -0.8 -2 -5 -1.4 -5.4 0.8 -0.2 1 1.7 4.3 4.2 7.4 5.1 6.2 5.9 10.1 2.6 13.4 -2.2 2.2 -8.2 2.7 -11.2 0.9z"/>
 </g>
 <g fill="#f2efef">
  <path d="M60.5 387.8 c0.4 -2.8 12.5 -121.3 12.5 -123.1 0 -0.4 -4.9 -0.7 -10.9 -0.7 l-10.9 0 -0.5 2.8 c-0.3 1.5 -2.2 20.6 -4.3 42.5 l-3.8 39.7 -20.9 0 -20.8 0 0.6 -4.2 c0.3 -2.4 3.2 -31.7 6.5 -65.3 3.3 -33.5 6.2 -62.7 6.5 -64.7 l0.5 -3.8 -5.5 0 -5.6 0 0.6 -4.7 c1.2 -10 2.5 -22.9 2.5 -24.5 0 -1.7 1.9 -1.8 26.5 -1.8 l26.5 0 -0.5 3.8 c-0.9 6.4 -4.5 43.5 -4.5 46.4 l0 2.8 31.6 0 31.6 0 -0.6 4.8 c-0.3 2.6 -3.7 36.2 -7.6 74.7 -3.8 38.5 -7.2 71.9 -7.5 74.3 l-0.6 4.2 -21 0 -21 0 0.6 -3.2z"/>
  <path d="M132.3 344.8 c0.3 -2.4 2.9 -28.5 5.8 -58 l5.4 -53.8 20.7 0 c11.5 0 20.8 0.3 20.8 0.8 0 0.4 -1.8 18.3 -4 39.7 -2.2 21.4 -4 40.2 -4 41.7 l0 2.8 10.5 0 c10 0 10.5 -0.1 10.9 -2.2 0.3 -1.3 2.1 -18.9 4.1 -39.3 1.9 -20.3 3.8 -38.5 4.1 -40.2 l0.5 -3.3 20.7 0 20.8 0 -5.8 57.3 c-3.1 31.4 -5.7 57.5 -5.8 58 0 0.4 -23.7 0.7 -52.6 0.7 l-52.7 0 0.6 -4.2z"/>
  <path d="M263 346.8 c0 -1.3 0.5 -8.3 1.2 -15.5 l1.1 -13.3 31.6 -0.2 31.6 -0.3 0.7 -4.9 c0.4 -2.8 0.5 -5.3 0.2 -5.8 -0.3 -0.4 -14.4 -0.8 -31.5 -0.8 -28.8 0 -30.9 -0.1 -30.9 -1.7 0 -1 1.6 -17.3 3.5 -36.3 1.9 -19 3.5 -34.6 3.5 -34.7 0 -0.2 23.6 -0.3 52.5 -0.3 51.5 0 52.5 0 52.5 2 0 2.5 -1.9 21.5 -2.6 25.8 l-0.5 3.2 -31.4 0 -31.5 0 -0.4 2.3 c-0.3 1.2 -0.7 3.7 -0.9 5.5 l-0.4 3.2 32 0 32 0 -0.6 3.8 c-0.3 2 -2 18.7 -3.8 37 l-3.3 33.2 -52.3 0 -52.3 0 0 -2.2z"/>
  <path d="M393.7 346.3 c0.2 -1.6 3 -30.5 6.3 -64.3 3.3 -33.8 6.2 -63.4 6.5 -65.7 l0.6 -4.3 21 0 21.1 0 -0.6 2.8 c-0.3 1.5 -0.8 6.2 -1.2 10.5 l-0.6 7.7 10.6 0 c9.9 0 10.6 0.1 10.6 2 0 2.5 -1.9 21.5 -2.6 25.7 l-0.5 3.2 -10.7 0.3 -10.7 0.3 -2.2 22 c-1.1 12.1 -2.3 23.9 -2.6 26.3 l-0.5 4.2 10.4 0 10.4 0 -0.1 4.3 c-0.1 2.3 -0.6 9.4 -1.3 15.7 l-1.1 11.5 -31.6 0.3 -31.6 0.2 0.4 -2.7z"/>
  <path d="M482.4 344.8 c0.6 -4 12.4 -123.7 12.9 -130.3 0.2 -2.9 0.1 -3 -5 -3.3 -3.9 -0.2 -5.3 -0.7 -5.3 -1.8 0 -1.7 1.8 -19 2.6 -25.1 l0.5 -4.3 26.5 0 26.4 0 -0.5 3.8 c-0.7 4.4 -16.5 161.8 -16.5 163.8 0 1.2 -3.7 1.4 -21.1 1.4 l-21 0 0.5 -4.2z"/>
  <path d="M550 346.7 c0 -1.2 2.5 -27.1 5.5 -57.5 3 -30.4 5.5 -55.5 5.5 -55.7 0 -0.3 23.6 -0.5 52.5 -0.5 l52.5 0 0 2.4 c0 1.3 -0.7 8.6 -1.5 16.2 -1.4 12.9 -2 15.3 -8.9 34.4 l-7.4 20.5 -20.2 -0.2 c-11.1 0 -20.4 -0.4 -20.7 -0.7 -0.3 -0.2 2.7 -9.4 6.6 -20.3 3.9 -10.9 7.1 -20.2 7.1 -20.6 0 -0.6 -20.9 -1.1 -21.1 -0.4 0 0.1 -1.3 12 -2.8 26.5 l-2.7 26.2 31.9 0 31.9 0 -0.5 3.3 c-0.3 1.7 -1.1 8.9 -1.8 16 l-1.2 12.7 -52.3 0 -52.4 0 0 -2.3z"/>
  <path d="M560.1 187.8 l0 -26.3 5.9 -5.3 5.9 -5.3 6.3 4.2 c3.5 2.3 8 5.5 10 7.1 l3.7 2.9 0.3 12.2 0.3 12.2 13.5 0 c13.1 0 13.5 -0.1 13.8 -2.2 0.3 -2 1.1 -1.6 9.3 4.4 4.9 3.5 9.1 6.8 9.4 7.3 0.2 0.4 -4.4 4 -10.3 7.9 l-10.8 7.1 -28.7 0 -28.7 0 0.1 -26.2z"/>
  <path d="M69.1 209.3 c0 -1.6 2.8 -30 6.2 -63.3 l6.2 -60.5 -10.9 -0.3 c-6 -0.1 -11 -0.1 -11.1 0 -0.1 0.2 -1.9 17.2 -3.9 37.8 -2 20.6 -3.9 39.6 -4.3 42.3 l-0.6 4.7 -20.3 0 c-19.9 0 -20.4 -0.1 -20.4 -2 0 -1.2 2.9 -31.6 6.5 -67.6 3.6 -36.1 6.5 -66.2 6.5 -67 0 -1 -1.3 -1.4 -5 -1.4 l-5 0 0.1 -3.7 c0.1 -2.1 0.6 -9 1.3 -15.3 l1.1 -11.5 26.3 -0.3 c24.5 -0.2 26.2 -0.1 26.2 1.5 0 1 -1.1 12.8 -2.5 26.3 -1.4 13.5 -2.5 24.6 -2.5 24.8 0 0.1 14.2 0.2 31.5 0.2 29.3 0 31.5 0.1 31.5 1.8 0 0.9 -3.4 36.5 -7.7 79 l-7.7 77.2 -20.8 0 -20.8 0 0.1 -2.7z"/>
  <path d="M646.9 169.2 c-2 -1.5 -8.9 -6.5 -15.3 -11.2 -16 -11.7 -15.9 -12 4.4 -12 l16 0 0 13 c0 7.2 -0.3 13 -0.7 13 -0.5 0 -2.4 -1.3 -4.4 -2.8z"/>
  <path d="M127 169 c0 -0.5 2.5 -25.8 5.5 -56.2 3 -30.4 5.5 -56 5.5 -57 0 -1.7 2.8 -1.8 52.8 -1.8 l52.8 0 -1.6 15.8 c-1.5 15.2 -1.8 16.4 -9 37.1 l-7.5 21.4 -20.4 -0.6 c-11.2 -0.4 -20.5 -0.8 -20.7 -1 -0.3 -0.2 2.7 -9.3 6.6 -20.1 3.8 -10.8 7 -20.1 7 -20.6 0 -0.6 -4.5 -1 -10.5 -1 -5.8 0 -10.5 0.1 -10.5 0.3 0 0.1 -1.1 11.2 -2.5 24.7 -1.4 13.5 -2.5 25.3 -2.5 26.3 0 1.6 2.2 1.7 31.5 1.7 29.3 0 31.5 0.1 31.5 1.8 0 0.9 -0.7 7.6 -1.5 14.7 -0.8 7.2 -1.5 13.6 -1.5 14.3 0 0.9 -11.2 1.2 -52.5 1.2 -33.2 0 -52.5 -0.4 -52.5 -1z"/>
  <path d="M244.6 164.3 c0.3 -3.2 2.9 -29.2 5.8 -57.8 l5.1 -52 52.8 -0.3 52.9 -0.2 -0.6 3.7 c-0.3 2.1 -2.9 26.5 -5.6 54.3 -2.7 27.8 -5.3 52.2 -5.6 54.3 l-0.6 3.7 -20.4 0 -20.4 0 0 -3.2 c0.1 -1.8 0.5 -6.4 1 -10.3 0.5 -3.8 0.7 -7.1 0.5 -7.3 -0.2 -0.3 -5.7 4.3 -12.2 10.2 l-11.8 10.6 -20.7 0 -20.8 0 0.6 -5.7z m66.4 -27 c0 -1.5 4 -42.9 4.6 -47.5 l0.6 -4.8 -11.1 0 c-8.2 0 -11.1 0.3 -11.1 1.3 0 0.6 -1.1 12.2 -2.5 25.7 -1.4 13.5 -2.5 24.8 -2.5 25.3 0 0.4 5 0.7 11 0.7 6.1 0 11 -0.3 11 -0.7z"/>
  <path d="M361.4 166.8 c0.3 -1.8 2.8 -26.5 5.6 -54.8 2.8 -28.3 5.3 -53 5.6 -54.7 l0.5 -3.3 52.4 0 c41.3 0 52.5 0.3 52.5 1.3 0 0.6 -1.1 11.9 -2.5 25.1 -1.4 13.1 -2.5 24.2 -2.5 24.7 0 0.5 -9.5 0.9 -21.1 0.9 l-21.1 0 0.6 -5.7 c0.4 -3.2 0.9 -7.9 1.2 -10.5 l0.6 -4.8 -10.6 0 c-7.7 0 -10.8 0.4 -11.1 1.3 -0.4 1.1 -8.5 79.9 -8.5 82.5 0 0.9 -5 1.2 -21 1.2 l-21.1 0 0.5 -3.2z"/>
  <path d="M485.2 102.3 c3.7 -37.3 6.7 -68.1 6.8 -68.5 0 -0.5 9.5 -0.8 21.1 -0.8 l21.1 0 -0.6 2.7 c-0.2 1.6 -0.8 6.3 -1.1 10.6 l-0.7 7.7 10.6 0 c12.3 0 11.2 -1.8 9.6 15.5 -1.7 17.1 -0.3 15.4 -12.8 15.7 l-10.7 0.3 -2.2 22 c-1.1 12.1 -2.3 23.9 -2.6 26.3 l-0.5 4.2 10.4 0 c12.2 0 11 -2.3 9.2 18.3 l-1.2 13.7 -31.6 0 -31.6 0 6.8 -67.7z"/>
  <path d="M620 120.5 c0 -4.7 0.4 -8.5 0.9 -8.5 0.5 0 5.7 2.9 11.6 6.5 5.9 3.6 11 6.5 11.3 6.5 0.4 0 1.8 0.9 3.2 2 l2.5 2 -14.7 0 -14.8 0 0 -8.5z"/>
  <path d="M646.7 89.5 l-4.8 -5.5 5 0 5.1 0 0 5.5 c0 3 -0.1 5.5 -0.2 5.5 -0.2 0 -2.5 -2.5 -5.1 -5.5z"/>
 </g>
</svg>