<?xml version="1.0" encoding="UTF-8"?>
<svg id="Layer_2" data-name="Layer 2" xmlns="http://www.w3.org/2000/svg" viewBox="0 0 72.5 96.47">
  <defs>
    <style>
      .cls-1 {
        fill: #da1a32;
      }

      .cls-2 {
        fill: #fff;
      }

      .cls-3 {
        fill: #131313;
      }
    </style>
  </defs>
  <g id="Layer_1-2" data-name="Layer 1">
    <g>
      <path class="cls-1" d="M63.01,81.89v-.02s-1.11-1.47-1.11-1.47h0s-7.46-10.07-7.46-10.07h0l-23.93-32.15c-3.2-4.28-5.4-7.75-6.6-10.43-1.2-2.68-1.81-5.24-1.81-7.69,0-3.2,1.16-5.74,3.49-7.63,2.32-1.89,5.5-2.83,9.53-2.83,2.86,0,5.59.38,8.19,1.15,2.59.77,5.12,1.96,7.57,3.58V2.93c-2.91-.95-5.72-1.68-8.44-2.18-2.72-.5-5.43-.75-8.13-.75-7.18,0-12.84,1.81-16.97,5.42-4.13,3.61-6.2,8.53-6.2,14.76,0,2.95.5,5.85,1.49,8.72.94,2.7,2.38,5.46,4.28,8.28,1.43,1.97,4.91,6.77,5.89,8.1l26.2,35.51,5.36,7.1,4.86,6.79h13.27l-9.48-12.77h0Z"/>
      <polygon class="cls-3" points="63 83.65 63.01 83.66 63.01 83.66 63 83.65"/>
      <path class="cls-2" d="M59.29,69.46l5.93,8.01c1.5-2.53,2.73-5.3,3.66-8.34,1.54-5.04,2.3-10.91,2.3-17.59v-2.43h-10.21l.06.44c.12,2.91.19,5.02.19,6.35,0,4.32-.4,8.03-1.18,11.15-.22.85-.47,1.65-.75,2.42Z"/>
      <path class="cls-2" d="M49.93,91.06l-5.27-6.99-.21-.28c-.1.06-.18.11-.29.16-1.83.96-3.7,1.68-5.61,2.18-1.91.5-3.74.75-5.48.75-6.44,0-11.73-2.06-15.88-6.2-4.15-4.13-6.23-9.33-6.23-15.6,0-3.82.94-7.42,2.83-10.81,1.14-2.04,2.67-4,4.51-5.91-.99-1.34-3.76-5.15-5.32-7.31-3.68,3.19-6.58,6.57-8.68,10.14-2.86,4.86-4.3,10.13-4.3,15.82,0,8.47,2.93,15.5,8.78,21.08s13.27,8.38,22.23,8.38c4.4,0,8.53-.71,12.39-2.12,2.25-.82,4.43-1.93,6.54-3.26l-.02-.03Z"/>
    </g>
  </g>
</svg>