<?xml version="1.0" encoding="UTF-8"?>
<svg id="Layer_2" data-name="Layer 2" xmlns="http://www.w3.org/2000/svg" viewBox="0 0 503.9 97.39">
  <defs>
    <style>
      .cls-1 {
        fill: #2e2c2e;
      }

      .cls-2 {
        fill: #da1a32;
      }

      .cls-3 {
        fill: #131313;
      }
    </style>
  </defs>
  <g id="Layer_1-2" data-name="Layer 1">
    <g>
      <g>
        <g>
          <path class="cls-1" d="M0,2.43h7.15v20.14h19.47V2.43h7.15v52.56h-7.15v-26.44H7.15v26.44H0V2.43Z"/>
          <path class="cls-1" d="M74.01,32.03v3.17h-28.06v.21c-.19,5.37.84,9.23,3.08,11.58,2.24,2.35,5.4,3.52,9.49,3.52,2.06,0,4.22-.33,6.48-.99,2.25-.66,4.66-1.65,7.22-2.99v6.44c-2.46,1.01-4.84,1.77-7.13,2.27-2.29.5-4.5.76-6.64.76-6.13,0-10.91-1.84-14.36-5.51s-5.17-8.74-5.17-15.19,1.69-11.31,5.07-15.07c3.38-3.75,7.89-5.63,13.52-5.63,5.02,0,8.98,1.7,11.88,5.1,2.9,3.4,4.44,7.51,4.63,12.32ZM67.54,30.13c-.28-2.72-1.27-5.07-2.97-7.06-1.7-1.98-4.15-2.97-7.34-2.97s-5.69,1.03-7.71,3.1c-2.02,2.07-3.12,4.39-3.31,6.97l21.33-.04Z"/>
          <path class="cls-1" d="M110.2,32.49v22.49h-6.51v-5.84c-1.38,2.35-3.13,4.08-5.23,5.19-2.1,1.11-4.65,1.67-7.66,1.67-4.01,0-7.22-1.13-9.61-3.4-2.39-2.26-3.59-5.3-3.59-9.1,0-4.39,1.47-7.72,4.42-10,2.94-2.28,7.27-3.41,12.97-3.41h8.69v-1.02c-.02-3.14-.82-5.43-2.39-6.85-1.57-1.42-4.08-2.13-7.53-2.13-2.21,0-4.44.32-6.69.95s-4.45,1.56-6.58,2.78v-6.48c2.39-.92,4.69-1.6,6.88-2.06,2.19-.46,4.32-.69,6.39-.69,3.26,0,6.05.48,8.36,1.44,2.31.96,4.18,2.41,5.61,4.33.89,1.17,1.53,2.62,1.9,4.35.38,1.72.56,4.31.56,7.76ZM97.64,35.17h-2.15c-3.78,0-6.62.66-8.54,1.99-1.91,1.33-2.87,3.3-2.87,5.93,0,2.37.72,4.21,2.15,5.53,1.43,1.31,3.41,1.97,5.95,1.97,3.57,0,6.37-1.24,8.41-3.71s3.07-5.9,3.1-10.26v-1.44h-6.05Z"/>
          <path class="cls-1" d="M149.06,23.69c-1.38-1.08-2.79-1.87-4.22-2.36-1.43-.49-3-.74-4.72-.74-4.04,0-7.12,1.27-9.26,3.8-2.14,2.53-3.2,6.2-3.2,10.98v19.61h-6.51V15.56h6.51v7.71c1.08-2.79,2.74-4.93,4.98-6.42,2.24-1.49,4.9-2.24,7.97-2.24,1.6,0,3.09.2,4.47.6,1.38.4,2.71,1.02,3.98,1.87v6.62Z"/>
          <path class="cls-1" d="M170.13,4.37v11.19h14.71v5.03h-14.71v21.4c0,2.91.55,4.94,1.65,6.09,1.1,1.15,3.03,1.72,5.77,1.72h7.29v5.17h-7.92c-4.86,0-8.28-.97-10.28-2.92-1.99-1.95-2.99-5.3-2.99-10.07v-21.4h-10.53v-5.03h10.53V4.37h6.48Z"/>
        </g>
        <g>
          <path class="cls-1" d="M287.97,2.43h7.15v20.14h19.47V2.43h7.15v52.56h-7.15v-26.44h-19.47v26.44h-7.15V2.43Z"/>
          <path class="cls-1" d="M328.99,40.06V15.63h6.48v24.43c0,3.54.63,6.15,1.88,7.81,1.26,1.67,3.2,2.5,5.83,2.5,3.05,0,5.39-1.07,7.01-3.22s2.43-5.23,2.43-9.24V15.63h6.51v39.36h-6.51v-5.91c-1.15,2.28-2.72,4-4.7,5.17-1.98,1.17-4.3,1.76-6.95,1.76-4.04,0-7.04-1.32-9.01-3.96s-2.96-6.64-2.96-11.99Z"/>
          <path class="cls-1" d="M393.97,16.93v6.34c-1.85-1.08-3.72-1.89-5.6-2.43-1.88-.54-3.79-.81-5.74-.81-2.93,0-5.12.48-6.57,1.43s-2.16,2.4-2.16,4.35c0,1.76.54,3.07,1.62,3.94,1.08.87,3.77,1.71,8.06,2.53l2.6.49c3.21.61,5.65,1.83,7.3,3.66s2.48,4.21,2.48,7.15c0,3.9-1.38,6.94-4.15,9.14-2.77,2.19-6.62,3.29-11.55,3.29-1.95,0-3.99-.21-6.13-.62-2.14-.41-4.45-1.03-6.93-1.85v-6.69c2.42,1.24,4.73,2.18,6.93,2.8,2.21.62,4.29.93,6.27.93,2.86,0,5.08-.58,6.65-1.74,1.57-1.16,2.36-2.79,2.36-4.88,0-3-2.88-5.08-8.62-6.23l-.28-.07-2.43-.49c-3.73-.73-6.45-1.95-8.17-3.68-1.71-1.72-2.57-4.08-2.57-7.06,0-3.78,1.28-6.69,3.84-8.75,2.56-2.05,6.21-3.08,10.95-3.08,2.11,0,4.14.19,6.09.58,1.95.39,3.86.97,5.74,1.74Z"/>
          <path class="cls-1" d="M417.96,4.37v11.19h14.71v5.03h-14.71v21.4c0,2.91.55,4.94,1.65,6.09,1.1,1.15,3.03,1.72,5.77,1.72h7.29v5.17h-7.92c-4.86,0-8.28-.97-10.28-2.92-2-1.95-2.99-5.3-2.99-10.07v-21.4h-10.53v-5.03h10.53V4.37h6.48Z"/>
          <path class="cls-1" d="M452.29,40.73c0,2.91.53,5.1,1.6,6.58,1.07,1.48,2.65,2.22,4.73,2.22h7.57v5.46h-8.2c-3.87,0-6.87-1.24-8.99-3.71-2.12-2.48-3.19-5.99-3.19-10.54V5.07h-10.38V0h16.86v40.73Z"/>
          <path class="cls-1" d="M503.9,32.03v3.17h-28.06v.21c-.19,5.37.84,9.23,3.08,11.58,2.24,2.35,5.4,3.52,9.49,3.52,2.06,0,4.22-.33,6.48-.99,2.25-.66,4.66-1.65,7.22-2.99v6.44c-2.46,1.01-4.84,1.77-7.13,2.27-2.29.5-4.5.76-6.64.76-6.13,0-10.91-1.84-14.36-5.51-3.45-3.67-5.17-8.74-5.17-15.19s1.69-11.31,5.07-15.07c3.38-3.75,7.89-5.63,13.52-5.63,5.02,0,8.98,1.7,11.88,5.1,2.9,3.4,4.44,7.51,4.63,12.32ZM497.43,30.13c-.28-2.72-1.27-5.07-2.98-7.06-1.7-1.98-4.15-2.97-7.34-2.97s-5.69,1.03-7.71,3.1c-2.02,2.07-3.12,4.39-3.31,6.97l21.33-.04Z"/>
        </g>
        <path class="cls-2" d="M251.55,46.77h0s-.62-.84-.62-.84h0s-4.22-5.69-4.22-5.69h0l-13.53-18.17c-1.81-2.42-3.05-4.38-3.73-5.9-.68-1.51-1.02-2.96-1.02-4.35,0-1.81.66-3.24,1.97-4.31,1.31-1.07,3.11-1.6,5.39-1.6,1.62,0,3.16.22,4.63.65,1.47.43,2.89,1.11,4.28,2.02V2.13c-1.64-.54-3.23-.95-4.77-1.23s-3.07-.42-4.59-.42c-4.06,0-7.26,1.02-9.59,3.06-2.33,2.04-3.5,4.82-3.5,8.34,0,1.67.28,3.31.84,4.93.53,1.53,1.34,3.09,2.42,4.68.81,1.11,2.78,3.83,3.33,4.58l14.81,20.07,3.03,4.01,2.75,3.84h7.5l-5.36-7.22h0Z"/>
        <polygon class="cls-3" points="251.54 47.76 251.55 47.77 251.55 47.77 251.54 47.76"/>
        <path class="cls-1" d="M249.44,39.74l3.35,4.53c.85-1.43,1.54-3,2.07-4.71.87-2.85,1.3-6.17,1.3-9.94v-1.37h-5.77l.04.25c.07,1.64.11,2.84.11,3.59,0,2.44-.22,4.54-.67,6.3-.12.48-.26.93-.42,1.37Z"/>
        <path class="cls-1" d="M244.15,51.95l-2.98-3.95-.12-.16c-.06.03-.1.06-.16.09-1.03.54-2.09.95-3.17,1.23-1.08.28-2.11.42-3.1.42-3.64,0-6.63-1.17-8.98-3.5-2.35-2.34-3.52-5.27-3.52-8.82,0-2.16.53-4.19,1.6-6.11.64-1.15,1.51-2.26,2.55-3.34-.56-.76-2.12-2.91-3.01-4.13-2.08,1.8-3.72,3.71-4.91,5.73-1.62,2.75-2.43,5.73-2.43,8.94,0,4.79,1.65,8.76,4.96,11.92,3.31,3.16,7.5,4.73,12.57,4.73,2.49,0,4.82-.4,7.01-1.2,1.27-.47,2.5-1.09,3.7-1.85v-.02Z"/>
      </g>
      <g>
        <g>
          <path class="cls-1" d="M147.59,74.43h13.26v2.56h-10.2v6.03h9.25v2.56h-9.25v11.36h-3.06v-22.52Z"/>
          <path class="cls-1" d="M195.71,74.43h12.51v2.56h-4.72v17.39h4.72v2.56h-12.51v-2.56h4.72v-17.39h-4.72v-2.56Z"/>
          <path class="cls-1" d="M243.79,74.43h3.06v19.96h10.88v2.56h-13.94v-22.52Z"/>
          <path class="cls-1" d="M291.21,74.5h4.07l3.89,11.44,3.92-11.44h4.09v22.45h-2.82v-19.84l-4.01,11.83h-2.31l-4.03-11.83v19.84h-2.81v-22.45Z"/>
          <path class="cls-1" d="M355.02,75.2v3.09c-.93-.59-1.85-1.04-2.78-1.34s-1.87-.45-2.81-.45c-1.44,0-2.57.33-3.41,1s-1.25,1.57-1.25,2.71c0,1,.27,1.76.82,2.28.55.52,1.57.96,3.07,1.31l1.6.36c2.11.49,3.65,1.27,4.62,2.32s1.45,2.49,1.45,4.31c0,2.14-.66,3.78-1.99,4.9s-3.26,1.69-5.79,1.69c-1.06,0-2.12-.11-3.18-.34-1.07-.23-2.14-.57-3.21-1.02v-3.24c1.16.73,2.25,1.27,3.28,1.61s2.07.51,3.12.51c1.54,0,2.74-.34,3.59-1.03s1.28-1.65,1.28-2.89c0-1.13-.29-1.99-.88-2.58-.59-.59-1.61-1.05-3.07-1.37l-1.63-.38c-2.09-.47-3.61-1.19-4.56-2.14s-1.42-2.24-1.42-3.85c0-2.01.68-3.62,2.03-4.83s3.15-1.82,5.39-1.82c.86,0,1.78.1,2.73.29.96.2,1.96.49,3.02.88Z"/>
        </g>
        <rect class="cls-1" y="84.42" width="123.59" height="2.57"/>
        <rect class="cls-1" x="380.32" y="84.42" width="123.59" height="2.57"/>
      </g>
    </g>
  </g>
</svg>